<svg height="512" viewBox="0 0 128 128" width="512" xmlns="http://www.w3.org/2000/svg"><g><path d="m101.175 76.856a5.28 5.28 0 0 1 -1.425-6.056 38.638 38.638 0 1 0 -71.55-.121 5.39 5.39 0 0 1 -1.375 6.177 10.464 10.464 0 0 0 -3.758 9.03 10.685 10.685 0 0 0 10.715 9.459h5.238v6.748a8.417 8.417 0 0 0 8.407 8.407h33.146a8.416 8.416 0 0 0 8.406-8.407v-6.748h5.239a10.685 10.685 0 0 0 10.715-9.46 10.463 10.463 0 0 0 -3.758-9.029zm.769 8.756a7.661 7.661 0 0 1 -7.726 6.733h-6.739a1.5 1.5 0 0 0 -1.5 1.5v8.248a5.412 5.412 0 0 1 -5.406 5.407h-2.1v-7.683a1.5 1.5 0 1 0 -3 0v7.683h-5.647v-7.683a1.5 1.5 0 1 0 -3 0v7.683h-5.652v-7.683a1.5 1.5 0 0 0 -3 0v7.683h-5.652v-7.683a1.5 1.5 0 0 0 -3 0v7.683h-2.095a5.413 5.413 0 0 1 -5.407-5.407v-8.248a1.5 1.5 0 0 0 -1.5-1.5h-6.738a7.661 7.661 0 0 1 -7.726-6.732 7.461 7.461 0 0 1 2.677-6.442 8.412 8.412 0 0 0 2.245-9.624 35.366 35.366 0 0 1 -2.616-13.409 35.771 35.771 0 0 1 11.31-26.038 35.288 35.288 0 0 1 24.3-9.6q1.25 0 2.51.085a35.642 35.642 0 0 1 30.494 49.074 8.3 8.3 0 0 0 2.291 9.512 7.46 7.46 0 0 1 2.677 6.441z"/><path d="m60.014 70.094a9.941 9.941 0 1 0 -9.941 9.941 9.952 9.952 0 0 0 9.941-9.941zm-9.941 6.941a6.941 6.941 0 1 1 6.941-6.941 6.948 6.948 0 0 1 -6.941 6.941z"/><path d="m78.082 60.153a9.941 9.941 0 1 0 9.94 9.941 9.952 9.952 0 0 0 -9.94-9.941zm0 16.882a6.941 6.941 0 1 1 6.94-6.941 6.949 6.949 0 0 1 -6.94 6.941z"/><path d="m66.745 80.685a3.169 3.169 0 0 0 -5.49 0l-4.537 7.858a3.17 3.17 0 0 0 2.745 4.757h9.074a3.17 3.17 0 0 0 2.745-4.756zm1.94 9.529a.157.157 0 0 1 -.148.085h-9.074a.156.156 0 0 1 -.148-.085.159.159 0 0 1 0-.171l4.537-7.858a.156.156 0 0 1 .148-.085.153.153 0 0 1 .147.085l4.538 7.858a.159.159 0 0 1 0 .171z"/></g></svg>