<svg height="512" viewBox="0 0 60 49" width="512" xmlns="http://www.w3.org/2000/svg"><g id="Page-1" fill="none" fill-rule="evenodd"><g id="015---Rat" fill="rgb(0,0,0)" fill-rule="nonzero"><path id="Shape" d="m59.966 8.815c-.0051818-.05068646-.014547-.1008575-.028-.15-.3-1.425-2.546-2.255-6.623-3.614-2.1312133-.65651704-4.3479681-.9935123-6.578-1-.507-1.944-1.837-4.051-4.737-4.051-1.1441815-.0106761-2.206162.59322509-2.782 1.582-.5334142.94073236-.797726 2.01008803-.764 3.091 0 .059 0 .118.006.177-.5.179-1.006.367-1.526.57-1.6559091.69338973-3.3735111 1.22909406-5.13 1.6-1.9087565.39842137-3.885883.32530888-5.76-.213-2.3075191-.54835724-4.6722518-.81927423-7.044-.807-7.747 0-19 6.623-19 17 0 8.188 1.278 12.219 4.51 14.081.727 3.548 2.306 7.2 5.671 8.62 4.217 1.864 10.892 1.662 19.343 1.409 3.434-.1 6.988-.2 10.805-.2 2.6.012 8.7.041 11.744 1.325 1.2094584.5105884 2.6055148-.0353588 3.1477411-1.2309678.5422262-1.1956089.033191-2.6055433-1.1477411-3.1790322-4.888-2.385-14.4-2.656-23.589-2.918-5.926-.169-11.525-.328-15.022-1.07-.797181-.1457593-1.5680546-.4100203-2.287-.784-.3003444-.4639472-.5260859-.9721186-.669-1.506 1.8553327-.4881841 3.6722363-1.1122016 5.436-1.867.313.633.622 1.316.885 2.011.2890704.7851541 1.0363244 1.3073941 1.873 1.309h8.84c.6971374.0005415 1.3442537-.3619649 1.7078999-.956744.3636463-.5947791.3913436-1.3359965.0731001-1.956256-1.013-1.987-2.548-3.087-4.321-3.087-1.509 0-2.339-.059-2.724-.678.348-.25.672-.49.962-.709 1.6-1.217 2.488-1.887 6.927-2.627.032 0 .064-.012.1-.018 2.2079798.895587 4.247689 2.1599226 6.032 3.739.9287861.9053059 1.651531 2.0001673 2.119 3.21.413.976.884 2.083 2.584 2.083h4.8c.6501511-.0007507 1.2600353-.3150012 1.638-.844.372783-.5122108.4713835-1.1744023.264-1.773-.5208599-1.5930421-1.7813772-2.8349237-3.382-3.332-1.736-.578-3.756-4.1-5.129-7.58 1.2267566-1.15517 2.1717278-2.5767325 2.762-4.155.817-2.464 1.34-3.316 6.047-3.316 5.415 0 9.9-5.182 9.991-7.91 0-.015 0-.03.005-.046s0-.03 0-.044c-.0064414-.06219129-.016458-.12396016-.03-.185zm-44.916 32.985c3.674.779 9.36.941 15.379 1.113 8.563.243 18.268.52 22.769 2.716.2126296.0958214.3073214.3458704.2115.5585s-.3458704.3073214-.5585.2115c-3.008-1.269-8.013-1.462-12.514-1.483h-.622c-3.617 0-6.987.1-10.252.2-8.195.247-14.671.443-18.489-1.246-2.835-1.2-4.067-4.779-4.6-7.711-.005-.015 0-.032-.009-.047-.133-.735-.225-1.431-.285-2.033-.07723414-.7838876.3306436-1.5358028 1.02984963-1.8985091.69920604-.3627062 1.54880491-.2630946 2.14515037.2515091.41714993.3648898.65962586.8898301.667 1.444.045 1.016.3 4.477 1.61 6.316.597.908 2.66 1.423 3.518 1.608zm34.95-26.8c-5.422 0-6.8 1.227-7.949 4.684-.3697427.9814065-.9213985 1.8842084-1.626 2.661-.175-.551-.329-1.085-.455-1.588-.0847423-.348821-.3499483-.6254598-.6948844-.7248402-.344936-.0993804-.7166761-.0062538-.9740215.2440075-.2573454.2502612-.3608098.6192576-.2710941.9668327.2856053 1.1029723.6290806 2.1901435 1.029 3.257.008.025.017.048.027.073 1.414 3.8 3.828 8.453 6.6 9.376.9975392.2970468 1.7869183 1.0629014 2.114 2.051h-4.8c-.377 0-.377 0-.749-.869-.569269-1.443685-1.4360615-2.7513695-2.544-3.838-3.131-3.131-9.137-5.157-9.391-5.242-.2516889-.0838718-.5263908-.0642936-.763641.0544253-.2372501.1187188-.4176022.3268475-.501359.5785747-.0932513.291901-.0451901.6105832.13.862-1.8548671.3722878-3.5891617 1.1966703-5.049 2.4.1578098-.7136059.3513874-1.4188289.58-2.113.742-2.367 1.664-5.313.183-8.276-2.316-4.635-8.89-6.557-11.895-6.557-.5522847 0-1 .4477153-1 1s.4477153 1 1 1c2.649 0 8.292 1.82 10.105 5.447 1.121 2.241.4 4.551-.3 6.784-.4530078 1.20968-.7242866 2.4798037-.805 3.769.0004559.3626215.0339274.7244485.1 1.081 0 .028.008.055.014.083.56 2.828 3.22 2.836 4.886 2.836 1.011 0 1.865.671 2.54 2l-8.84-.017c-.3929745-1.0167021-.8474819-2.0085368-1.361-2.97.000467-.0063247.000467-.0126753 0-.019-.006-.013-.018-.021-.024-.034-.761-1.433-1.433-2.447-1.478-2.515-.1982824-.297245-.5400812-.4661283-.8966441-.4430332s-.6737195.2346599-.832.555-.1336383.7007882.0646441.9980332c.008.011.357.539.828 1.357-1.5921154.6739639-3.2294493 1.2356696-4.9 1.681-.09-.631-.149-1.256-.174-1.81-.0293445-1.0899484-.5107531-2.1185734-1.3288595-2.839372-.81810638-.7207986-1.89917693-1.0688072-2.9841405-.960628-2.09320462.1972889-3.65326111 2.0183131-3.527 4.117-1.205-1.583-2.087-4.631-2.087-11.1 0-9.157 10.068-15 17-15 2.2289861-.01379478 4.4514587.24206322 6.619.762 2.1438772.59639598 4.3993403.67114377 6.578.218 1.870436-.39474967 3.6997661-.96390433 5.464-1.7.368-.143.725-.283 1.078-.413.593 2.266 2.094 4.133 4.261 4.133.5522847 0 1-.4477153 1-1 0-.55228475-.4477153-1-1-1-1.5 0-2.546-2.28-2.546-4.327-.0292279-.70905713.1316613-1.41303363.466-2.039.2101618-.39949879.6287335-.6452159 1.08-.634 2.936 0 3 3.818 3 4 .0021207.53649955.4292079.97471371.9654755.9906291.5362677.01591538.988591-.39619957 1.0225245-.9316291 1.9328141.02129738 3.852499.32070088 5.7.889.859.286 1.983.662 2.985 1.042-.1349084.08737181-.2608535.18785998-.376.3-.3789722.39237889-.3735524 1.01608478.0121814 1.40181858.3857338.38573382 1.0094397.39115362 1.4018186.01218142.208-.208.69-.173 1.137-.062-.721 1.844-3.968 5.358-7.848 5.358z"/><path id="Shape" d="m49 8h-1c-.5522847 0-1 .44771525-1 1s.4477153 1 1 1h1c.5522847 0 1-.44771525 1-1s-.4477153-1-1-1z"/></g></g></svg>